<?xml version="1.0" encoding="UTF-8" standalone="no"?>
<svg width="32px" height="32px" viewBox="0 0 32 32" version="1.1" xmlns="http://www.w3.org/2000/svg" xmlns:xlink="http://www.w3.org/1999/xlink">
    <!-- Generator: Sketch 3.7.1 (28215) - http://www.bohemiancoding.com/sketch -->
    <title>CircleAdd</title>
    <desc>Created with Sketch.</desc>
    <defs></defs>
    <g id="Page-1" stroke="none" stroke-width="1" fill="none" fill-rule="evenodd">
        <g id="Icons" transform="translate(-352.000000, -882.000000)" fill="#2E4063">
            <path d="M370,896 L370,891.000872 C370,890.444631 369.54809,890 368.990631,890 L367.009369,890 C366.443353,890 366,890.448106 366,891.000872 L366,896 L361.000872,896 C360.444631,896 360,896.45191 360,897.009369 L360,898.990631 C360,899.556647 360.448106,900 361.000872,900 L366,900 L366,904.999128 C366,905.555369 366.45191,906 367.009369,906 L368.990631,906 C369.556647,906 370,905.551894 370,904.999128 L370,900 L374.999128,900 C375.555369,900 376,899.54809 376,898.990631 L376,897.009369 C376,896.443353 375.551894,896 374.999128,896 L370,896 L370,896 Z M368,911 C375.179702,911 381,905.179702 381,898 C381,890.820298 375.179702,885 368,885 C360.820298,885 355,890.820298 355,898 C355,905.179702 360.820298,911 368,911 L368,911 Z M368,909 C374.075132,909 379,904.075132 379,898 C379,891.924868 374.075132,887 368,887 C361.924868,887 357,891.924868 357,898 C357,904.075132 361.924868,909 368,909 L368,909 Z" id="CircleAdd"></path>
        </g>
    </g>
</svg>