<?xml version="1.0" encoding="UTF-8" standalone="no"?>
<svg width="32px" height="32px" viewBox="0 0 32 32" version="1.1" xmlns="http://www.w3.org/2000/svg" xmlns:xlink="http://www.w3.org/1999/xlink">
    <!-- Generator: Sketch 3.7.1 (28215) - http://www.bohemiancoding.com/sketch -->
    <title>CircleRemove</title>
    <desc>Created with Sketch.</desc>
    <defs></defs>
    <g id="Page-1" stroke="none" stroke-width="1" fill="none" fill-rule="evenodd">
        <g id="Icons" transform="translate(-144.000000, -934.000000)" fill="#2E4063">
            <path d="M160,963 C167.179702,963 173,957.179702 173,950 C173,942.820298 167.179702,937 160,937 C152.820298,937 147,942.820298 147,950 C147,957.179702 152.820298,963 160,963 L160,963 Z M160,961 C166.075132,961 171,956.075132 171,950 C171,943.924868 166.075132,939 160,939 C153.924868,939 149,943.924868 149,950 C149,956.075132 153.924868,961 160,961 L160,961 Z M152,949.009369 C152,948.45191 152.444631,948 153.000872,948 L166.999128,948 C167.551894,948 168,948.443353 168,949.009369 L168,950.990631 C168,951.54809 167.555369,952 166.999128,952 L153.000872,952 C152.448106,952 152,951.556647 152,950.990631 L152,949.009369 L152,949.009369 Z" id="CircleRemove"></path>
        </g>
    </g>
</svg>