<?xml version="1.0" encoding="UTF-8" standalone="no"?>
<svg width="32px" height="32px" viewBox="0 0 32 32" version="1.1" xmlns="http://www.w3.org/2000/svg" xmlns:xlink="http://www.w3.org/1999/xlink">
    <!-- Generator: Sketch 3.7.1 (28215) - http://www.bohemiancoding.com/sketch -->
    <title>CircleFilledRemove</title>
    <desc>Created with Sketch.</desc>
    <defs></defs>
    <g id="Page-1" stroke="none" stroke-width="1" fill="none" fill-rule="evenodd">
        <g id="Icons" transform="translate(-92.000000, -934.000000)" fill="#2E4063">
            <path d="M108,963 C115.179702,963 121,957.179702 121,950 C121,942.820298 115.179702,937 108,937 C100.820298,937 95,942.820298 95,950 C95,957.179702 100.820298,963 108,963 L108,963 Z M100,949.009369 C100,948.45191 100.444631,948 101.000872,948 L114.999128,948 C115.551894,948 116,948.443353 116,949.009369 L116,950.990631 C116,951.54809 115.555369,952 114.999128,952 L101.000872,952 C100.448106,952 100,951.556647 100,950.990631 L100,949.009369 L100,949.009369 Z" id="CircleFilledRemove"></path>
        </g>
    </g>
</svg>