<?xml version="1.0" encoding="UTF-8" standalone="no"?>
<svg width="32px" height="32px" viewBox="0 0 32 32" version="1.1" xmlns="http://www.w3.org/2000/svg" xmlns:xlink="http://www.w3.org/1999/xlink">
    <!-- Generator: Sketch 3.7.1 (28215) - http://www.bohemiancoding.com/sketch -->
    <title>CircleFilledAdd</title>
    <desc>Created with Sketch.</desc>
    <defs></defs>
    <g id="Page-1" stroke="none" stroke-width="1" fill="none" fill-rule="evenodd">
        <g id="Icons" transform="translate(-300.000000, -882.000000)" fill="#2E4063">
            <path d="M318,896 L318,891.000872 C318,890.444631 317.54809,890 316.990631,890 L315.009369,890 C314.443353,890 314,890.448106 314,891.000872 L314,896 L309.000872,896 C308.444631,896 308,896.45191 308,897.009369 L308,898.990631 C308,899.556647 308.448106,900 309.000872,900 L314,900 L314,904.999128 C314,905.555369 314.45191,906 315.009369,906 L316.990631,906 C317.556647,906 318,905.551894 318,904.999128 L318,900 L322.999128,900 C323.555369,900 324,899.54809 324,898.990631 L324,897.009369 C324,896.443353 323.551894,896 322.999128,896 L318,896 L318,896 Z M316,911 C323.179702,911 329,905.179702 329,898 C329,890.820298 323.179702,885 316,885 C308.820298,885 303,890.820298 303,898 C303,905.179702 308.820298,911 316,911 L316,911 Z" id="CircleFilledAdd"></path>
        </g>
    </g>
</svg>