<?xml version="1.0" ?><!DOCTYPE svg  PUBLIC '-//W3C//DTD SVG 1.1//EN'  'http://www.w3.org/Graphics/SVG/1.1/DTD/svg11.dtd'><svg enable-background="new 0 0 128 128" id="Слой_1" version="1.1" viewBox="0 0 128 128" xml:space="preserve" xmlns="http://www.w3.org/2000/svg" xmlns:xlink="http://www.w3.org/1999/xlink"><g><g><path d="M31.467,110.08c-0.809,0-1.467-0.656-1.467-1.463V94.92h-9c-1.654,0-3-1.346-3-3v-51c0-1.654,1.346-3,3-3    h86c1.654,0,3,1.346,3,3v51c0,1.654-1.346,3-3,3H43.928l-11.315,14.601C32.318,109.883,31.906,110.08,31.467,110.08z M21,39.92    c-0.552,0-1,0.449-1,1v51c0,0.551,0.448,1,1,1h10c0.553,0,1,0.448,1,1v13.127l10.647-13.739c0.189-0.245,0.48-0.388,0.79-0.388    H107c0.552,0,1-0.449,1-1v-51c0-0.551-0.448-1-1-1H21z" fill="#323638"/></g><g><circle cx="47" cy="66.753" fill="#323638" r="3"/></g><g><circle cx="64" cy="66.753" fill="#323638" r="3"/></g><g><circle cx="81" cy="66.753" fill="#323638" r="3"/></g></g></svg>